# AST/ASF file generated using VICON BodyLanguage
# -----------------------------------------------
:version 1.10
:name VICON
:units
  mass 1.0
  length 0.45
  angle deg
:documentation
   .ast/.asf automatically generated from VICON data using
   VICON BodyBuilder and BodyLanguage model FoxedUp or BRILLIANT.MOD
:root
   order TX TY TZ RX RY RZ
   axis XYZ
   position 0 0 0  
   orientation 0 0 0 
:bonedata
  begin
     id 1 
     name lhipjoint
     direction 0.702568 -0.596508 0.388042 
     length 2.56661 
     axis 0 0 0  XYZ
  end
  begin
     id 2 
     name lfemur
     direction 0.34202 -0.939693 0  
     length 6.58374  
     axis 0 0 20  XYZ
    dof rx ry rz
    limits (-160.0 20.0)
           (-70.0 70.0)
           (-60.0 70.0)
  end
  begin
     id 3 
     name ltibia
     direction 0.34202 -0.939693 0   
     length 6.62538   
     axis 0 0 20   XYZ
    dof rx
    limits (-10.0 170.0)
  end
  begin
     id 4 
     name lfoot
     direction 0.10455 -0.287249 0.952133   
     length 2.26699   
     axis -90 7.62852e-016 20   XYZ
    dof rx rz
    limits (-45.0 90.0)
           (-70.0 20.0)
  end
  begin
     id 5 
     name ltoes
     direction 1.53572e-011 -4.22322e-011 1   
     length 1.12949   
     axis -90 7.62852e-016 20   XYZ
    dof rx
    limits (-90.0 20.0)
  end
  begin
     id 6 
     name rhipjoint
     direction -0.728055 -0.574632 0.373811   
     length 2.66432  
     axis 0 0 0  XYZ 
  end
  begin
     id 7 
     name rfemur
     direction -0.34202 -0.939693 0   
     length 6.66732   
     axis 0 0 -20   XYZ
    dof rx ry rz
    limits (-160.0 20.0)
           (-70.0 70.0)
           (-70.0 60.0)
  end
  begin
     id 8 
     name rtibia
     direction -0.34202 -0.939693 0   
     length 6.59288   
     axis 0 0 -20   XYZ
    dof rx
    limits (-10.0 170.0)
 end
 begin
     id 9 
     name rfoot
     direction -0.119193 -0.327479 0.93731   
     length 2.38061  
     axis -90 -7.62852e-016 -20   XYZ
    dof rx rz
    limits (-45.0 90.0)
           (-20.0 70.0)
  end
  begin
     id 10 
     name rtoes
     direction -1.53547e-011 -4.21827e-011 1   
     length 1.17899   
     axis -90 -7.62852e-016 -20   XYZ
    dof rx
    limits (-90.0 20.0)
  end
  begin
     id 11 
     name lowerback
     direction -0.000416114 0.999912 -0.0132284   
     length 2.12109   
     axis 0 0 0   XYZ
    dof rx ry rz
    limits (-20.0 45.0)
           (-30.0 30.0)
           (-30.0 30.0)
  end
  begin
     id 12 
     name upperback
     direction -0.00136371 0.99809 0.0617608   
     length 2.10067   
     axis 0 0 0   XYZ
    dof rx ry rz
    limits (-20.0 45.0)
           (-30.0 30.0)
           (-30.0 30.0)
  end
  begin
     id 13 
     name thorax
     direction -3.43026e-005 0.997776 0.0666515   
     length 2.10618   
     axis 0 0 0   XYZ
    dof rx ry rz
    limits (-20.0 45.0)
           (-30.0 30.0)
           (-30.0 30.0)
  end
  begin
     id 14 
     name lowerneck
     direction 0.0398646 0.998418 0.0396592   
     length 1.83817   
     axis 0 0 0   XYZ
    dof rx ry rz
    limits (-20.0 45.0)
           (-30.0 30.0)
           (-30.0 30.0)
  end
  begin
     id 15 
     name upperneck
     direction -0.0367268 0.961527 -0.272244   
     length 1.81975   
     axis 0 0 0   XYZ
    dof rx ry rz
    limits (-20.0 45.0)
           (-30.0 30.0)
           (-30.0 30.0)
  end
  begin
     id 16
     name head
     direction -0.0182665 0.99536 -0.0944669  
     length 1.86026  
     axis 0 0 0   XYZ
    dof rx ry rz
    limits (-20.0 45.0)
           (-30.0 30.0)
           (-30.0 30.0)
  end
  begin
     id 17 
     name lclavicle
     direction 0.924239 0.361045 0.124212  
     length 3.26878  
     axis 0 0 0   XYZ
    dof ry rz
    limits (-20.0 10.0)
           (0.0 20.0)
  end
  begin
     id 18 
     name lhumerus
     direction 1 -4.48968e-011 -2.56583e-027   
     length 4.58538   
     axis 180 -30 -90   XYZ
    dof rx ry rz
    limits (-60.0 90.0)
           (-90.0 90.0)
           (-90.0 90.0)
  end
  begin
     id 19
     name lradius
     direction 1 -4.4898e-011 -5.50375e-027   
     length 2.68935   
     axis 180 -30 -90   XYZ
    dof rx
    limits (-10.0 170.0)
  end
  begin
     id 20
     name lwrist
     direction 1 -4.48939e-011 -1.48955e-026   
     length 1.34468   
     axis 9.0955e-015 90 90   XYZ
    dof ry
    limits (-180.0 0.0)
 end
  begin
     id 21 
     name lhand
     direction 1 -4.48936e-011 -2.97907e-026   
     length 0.585058   
     axis 1.90115e-014 90 90   XYZ
    dof rx rz
    limits (-90.0 90.0)
           (-45.0 45.0)
  end
  begin
     id 22 
     name lfingers
     direction 1 -4.49082e-011 -5.96235e-026   
     length 0.471689   
     axis 3.80223e-014 90 90   XYZ
    dof rx
    limits (0.0 90.0)
  end
  begin
     id 23
     name lthumb
     direction 0.707107 -6.3489e-011 0.707107   
     length 0.677253   
     axis -90 45 -3.84942e-014   XYZ
    dof rx rz
    limits (-45.0 45.0)
           (-45.0 45.0)
  end
  begin
     id 24 
     name rclavicle
     direction -0.923098 0.371783 0.0983239   
     length 3.19656  
     axis 0 0 0   XYZ 
    dof ry rz
    limits (-10.0 20.0)
           (-20.0 0.0)
  end
  begin
     id 25 
     name rhumerus
     direction -1 -4.48976e-011 -2.5492e-027  
     length 4.4745   
     axis 180 30 90   XYZ
    dof rx ry rz
    limits (-90.0 60.0)
           (-90.0 90.0)
           (-90.0 90.0)
  end
  begin
     id 26 
     name rradius
     direction -1 -4.48941e-011 -4.36555e-027   
     length 2.93896   
     axis 180 30 90   XYZ
    dof rx
    limits (-10.0 170.0)
  end
  begin
     id 27 
     name rwrist
     direction -1 -4.49044e-011 -1.49032e-026   
     length 1.46948   
     axis 9.0955e-015 -90 -90   XYZ
    dof ry
    limits (-180.0 0.0)
  end
  begin
     id 28
     name rhand
     direction -1 -4.48826e-011 -2.97749e-026   
     length 0.405092   
     axis 1.90115e-014 -90 -90   XYZ
    dof rx rz
    limits (-90.0 90.0)
           (-45.0 45.0)
  end
  begin
     id 29
     name rfingers
     direction -1 -4.49209e-011 -5.96602e-026   
     length 0.326596   
     axis 3.80223e-014 -90 -90   XYZ
    dof rx
    limits (0.0 90.0)
  end
  begin
     id 30
     name rthumb
     direction -0.707107 -6.34776e-011 0.707107   
     length 0.468928   
     axis -90 -45 3.84942e-014   XYZ
    dof rx rz
    limits (-45.0 45.0)
           (-45.0 45.0)
  end
:hierarchy
  begin
    root lhipjoint rhipjoint lowerback
    lhipjoint lfemur
    lfemur ltibia
    ltibia lfoot
    lfoot ltoes
    rhipjoint rfemur
    rfemur rtibia
    rtibia rfoot
    rfoot rtoes
    lowerback upperback
    upperback thorax
    thorax lowerneck lclavicle rclavicle
    lowerneck upperneck
    upperneck head
    lclavicle lhumerus
    lhumerus lradius
    lradius lwrist
    lwrist lhand lthumb
    lhand lfingers
    rclavicle rhumerus
    rhumerus rradius
    rradius rwrist
    rwrist rhand rthumb
    rhand rfingers
  end

#!OML:ASF H:\Punching\Project 1\Capture day 1\Session 1\female.ASF
:FULLY-SPECIFIED
:DEGREES
1022
root -0.598519 14.7634 -0.964085 19.0556 -36.2471 -5.95173
lowerback -2.55255 2.37086 3.61491
upperback -7.59835 3.08014 -1.4575
thorax -6.21078 1.24158 -3.62092
lowerneck -5.18501 12.6249 19.2513
upperneck 19.8332 19.7692 -20.7492
head 11.4489 9.01131 -8.02743
rclavicle -9.49818e-015 3.97569e-015
rhumerus 9.42822 29.7319 -72.5712
rradius 126.515
rwrist -8.22235
rhand -31.4171 6.13024
rfingers 7.12502
rthumb -4.68591 -23.7979
lclavicle -9.49818e-015 3.97569e-015
lhumerus -1.51387 1.0366 55.2032
lradius 143.928
lwrist 5.6732
lhand -23.9839 13.5014
lfingers 7.12502
lthumb 2.49293 43.4666
rfemur -5.64777 11.0255 13.2765
rtibia 26.5786
rfoot -28.7173 -23.5685
rtoes -17.1787
lfemur -51.8781 19.3589 -12.7912
ltibia 50.6937
lfoot -12.4292 23.9431
ltoes 18.1673
1023
root -0.636271 14.7745 -1.05056 19.1173 -36.3287 -6.04573
lowerback -2.57734 2.29578 3.73088
upperback -7.60716 2.97795 -1.48118
thorax -6.20933 1.18243 -3.70777
lowerneck -5.12099 12.6953 19.2692
upperneck 20.0018 19.9188 -20.7849
head 11.5445 9.07588 -8.02611
rclavicle -2.03754e-015 -2.46493e-014
rhumerus 9.46272 29.8785 -72.7597
rradius 126.589
rwrist -8.16184
rhand -31.3265 5.98723
rfingers 7.12502
rthumb -4.59838 -23.9429
lclavicle -2.03754e-015 -2.46493e-014
lhumerus -1.68616 1.08303 55.3364
lradius 144.028
lwrist 5.43336
lhand -24.2258 13.549
lfingers 7.12502
lthumb 2.25933 43.5167
rfemur -5.72046 11.1476 13.6966
rtibia 26.3075
rfoot -29.0006 -23.7636
rtoes -16.1573
lfemur -51.4021 18.6731 -11.4897
ltibia 50.3885
lfoot -11.6418 23.3614
ltoes 16.8832
1024
root -0.673538 14.7856 -1.13507 19.1751 -36.3822 -6.10177
lowerback -2.62091 2.21026 3.80716
upperback -7.6252 2.86025 -1.5057
thorax -6.2105 1.11751 -3.77255
lowerneck -5.0573 12.7661 19.2974
upperneck 20.1741 20.0672 -20.8135
head 11.6422 9.14102 -8.02393
rclavicle 1.71203e-014 -1.51076e-014
rhumerus 9.46493 30.0191 -72.973
rradius 126.684
rwrist -8.03248
rhand -31.2355 5.83173
rfingers 7.12502
rthumb -4.51055 -24.1002
lclavicle 1.71203e-014 -1.51076e-014
lhumerus -1.86129 1.12149 55.4607
lradius 144.141
lwrist 5.20302
lhand -24.4329 13.595
lfingers 7.12502
lthumb 2.05925 43.5648
rfemur -5.81695 11.2748 14.0733
rtibia 26.0698
rfoot -29.2568 -23.9423
rtoes -15.2036
lfemur -50.9581 17.9471 -10.2123
ltibia 50.0793
lfoot -10.814 22.7111
ltoes 15.5522
1025
root -0.710181 14.7966 -1.21736 19.2396 -36.4074 -6.13261
lowerback -2.68507 2.11396 3.85609
upperback -7.65044 2.7268 -1.52851
thorax -6.2106 1.0462 -3.81937
lowerneck -5.00036 12.8417 19.3353
upperneck 20.3475 20.2192 -20.8352
head 11.7433 9.20849 -8.01926
rclavicle -1.08474e-013 7.95139e-015
rhumerus 9.4408 30.1583 -73.2111
rradius 126.795
rwrist -7.84134
rhand -31.1468 5.68208
rfingers 7.12502
rthumb -4.42491 -24.2517
lclavicle -1.08474e-013 7.95139e-015
lhumerus -2.04399 1.17049 55.5679
lradius 144.27
lwrist 4.99215
lhand -24.5929 13.6197
lfingers 7.12502
lthumb 1.90472 43.5909
rfemur -5.94421 11.3974 14.4137
rtibia 25.8706
rfoot -29.4806 -24.0974
rtoes -14.3483
lfemur -50.5875 17.2453 -9.00132
ltibia 49.7809
lfoot -9.96713 22.0051
ltoes 14.3504
1026
root -0.746017 14.8073 -1.29733 19.3146 -36.4058 -6.1406
lowerback -2.76915 2.01055 3.88108
upperback -7.68664 2.58267 -1.54827
thorax -6.21338 0.970669 -3.84904
lowerneck -4.94473 12.918 19.3784
upperneck 20.5223 20.3707 -20.8507
head 11.8455 9.27642 -8.01287
rclavicle -1.21992e-013 -2.54444e-014
rhumerus 9.38026 30.2977 -73.469
rradius 126.928
rwrist -7.59287
rhand -31.0608 5.55116
rfingers 7.12502
rthumb -4.3418 -24.3843
lclavicle -1.21992e-013 -2.54444e-014
lhumerus -2.23619 1.22921 55.6617
lradius 144.414
lwrist 4.7907
lhand -24.7156 13.6005
lfingers 7.12502
lthumb 1.78621 43.5728
rfemur -6.10934 11.5046 14.7173
rtibia 25.7152
rfoot -29.6808 -24.2166
rtoes -13.5813
lfemur -50.3135 16.6139 -7.88998
ltibia 49.5018
lfoot -9.0906 21.2457
ltoes 13.379
1027
root -0.780654 14.8167 -1.37472 19.4148 -36.3852 -6.15577
lowerback -2.86635 1.90673 3.90792
upperback -7.73543 2.43789 -1.55609
thorax -6.22294 0.894566 -3.86726
lowerneck -4.88181 12.992 19.4147
upperneck 20.6997 20.5208 -20.8627
head 11.9461 9.34384 -8.00484
rclavicle 1.95803e-014 1.74931e-014
rhumerus 9.28071 30.4473 -73.735
rradius 127.081
rwrist -7.31351
rhand -30.999 5.47197
rfingers 7.12502
rthumb -4.28215 -24.4647
lclavicle 1.95803e-014 1.74931e-014
lhumerus -2.45657 1.29798 55.7491
lradius 144.573
lwrist 4.58255
lhand -24.8071 13.5528
lfingers 7.12502
lthumb 1.69785 43.5258
rfemur -6.31398 11.5994 15.007
rtibia 25.6039
rfoot -29.8471 -24.308
rtoes -12.9276
lfemur -50.1381 16.0927 -6.87578
ltibia 49.2468
lfoot -8.18505 20.4447
ltoes 12.6739
1028
root -0.813789 14.8246 -1.44867 19.5309 -36.3531 -6.16937
lowerback -2.98202 1.80459 3.93995
upperback -7.79291 2.29478 -1.55793
thorax -6.23143 0.818939 -3.8819
lowerneck -4.81043 13.0621 19.4555
upperneck 20.8758 20.6678 -20.8813
head 12.0458 9.41033 -8.00134
rclavicle 5.48521e-014 1.90833e-014
rhumerus 9.1496 30.6238 -74.0045
rradius 127.211
rwrist -6.90843
rhand -31.1043 5.59373
rfingers 7.12502
rthumb -4.38383 -24.3409
lclavicle 5.48521e-014 1.90833e-014
lhumerus -2.68497 1.38495 55.821
lradius 144.728
lwrist 4.35414
lhand -24.8958 13.4214
lfingers 7.12502
lthumb 1.61225 43.395
rfemur -6.54471 11.6768 15.2702
rtibia 25.5353
rfoot -30.0456 -24.3158
rtoes -12.2178
lfemur -50.0418 15.6939 -5.98483
ltibia 49.0147
lfoot -7.25051 19.6036
ltoes 12.0864
1029
root -0.845099 14.8309 -1.51959 19.6657 -36.3114 -6.19442
lowerback -3.11151 1.71001 3.99049
upperback -7.85562 2.16171 -1.55109
thorax -6.23674 0.747418 -3.89791
lowerneck -4.73736 13.1258 19.4815
upperneck 21.0552 20.8081 -20.8986
head 12.1434 9.47281 -7.99672
rclavicle -4.72486e-014 -2.38542e-014
rhumerus 8.99782 30.8045 -74.2611
rradius 127.363
rwrist -6.48489
rhand -31.2486 5.77659
rfingers 7.12502
rthumb -4.52317 -24.1551
lclavicle -4.72486e-014 -2.38542e-014
lhumerus -2.90927 1.48017 55.8913
lradius 144.878
lwrist 4.09175
lhand -24.9956 13.2371
lfingers 7.12502
lthumb 1.5158 43.2115
rfemur -6.79802 11.7423 15.5226
rtibia 25.5053
rfoot -30.2727 -24.2621
rtoes -11.4458
lfemur -50.011 15.4121 -5.20555
ltibia 48.8054
lfoot -6.32229 18.7376
ltoes 11.6479
1030
root -0.874368 14.8353 -1.58694 19.8116 -36.2707 -6.22926
lowerback -3.24943 1.62471 4.0554
upperback -7.91955 2.04115 -1.53481
thorax -6.23758 0.681657 -3.91231
lowerneck -4.67945 13.1858 19.493
upperneck 21.2475 20.945 -20.9139
head 12.2466 9.53131 -7.98958
rclavicle -3.04513e-014 1.98785e-014
rhumerus 8.84666 30.9888 -74.4927
rradius 127.548
rwrist -6.09299
rhand -31.3993 5.9877
rfingers 7.12502
rthumb -4.66872 -23.9409
lclavicle -3.04513e-014 1.98785e-014
lhumerus -3.12315 1.58848 55.9597
lradius 145.017
lwrist 3.79874
lhand -25.1148 13.0271
lfingers 7.12502
lthumb 1.40073 43.0022
rfemur -7.06712 11.7831 15.7623
rtibia 25.5072
rfoot -30.5152 -24.1632
rtoes -10.6413
lfemur -50.0198 15.2387 -4.54053
ltibia 48.6197
lfoot -5.44733 17.8683
ltoes 11.2034
1031
root -0.901365 14.8379 -1.65072 19.963 -36.2397 -6.27408
lowerback -3.39277 1.54854 4.13263
upperback -7.9767 1.93303 -1.50895
thorax -6.22708 0.622136 -3.92373
lowerneck -4.64835 13.2449 19.4937
upperneck 21.4473 21.0809 -20.9338
head 12.3581 9.58613 -7.9816
rclavicle -5.5113e-014 -1.03368e-014
rhumerus 8.72409 31.1767 -74.6838
rradius 127.765
rwrist -5.75493
rhand -31.5504 6.20322
rfingers 7.12502
rthumb -4.81458 -23.7221
lclavicle -5.5113e-014 -1.03368e-014
lhumerus -3.31752 1.7076 56.0302
lradius 145.146
lwrist 3.47615
lhand -25.2733 12.7954
lfingers 7.12502
lthumb 1.24761 42.7715
rfemur -7.34559 11.8061 15.9915
rtibia 25.5311
rfoot -30.7528 -24.0513
rtoes -9.84908
lfemur -50.0473 15.1496 -3.97777
ltibia 48.4605
lfoot -4.71033 17.0351
ltoes 10.7909
1032
root -0.925952 14.8387 -1.7108 20.1145 -36.2251 -6.32675
lowerback -3.53318 1.48315 4.21707
upperback -8.03176 1.83986 -1.4722
thorax -6.21495 0.570105 -3.92828
lowerneck -4.63307 13.2997 19.4858
upperneck 21.6565 21.2136 -20.9602
head 12.4764 9.63692 -7.97535
rclavicle -2.04997e-014 -3.73715e-014
rhumerus 8.6318 31.3699 -74.8272
rradius 128.025
rwrist -5.51127
rhand -31.6785 6.35932
rfingers 7.12502
rthumb -4.93827 -23.5631
lclavicle -2.04997e-014 -3.73715e-014
lhumerus -3.4956 1.83087 56.1032
lradius 145.265
lwrist 3.14862
lhand -25.4766 12.5888
lfingers 7.12502
lthumb 1.05129 42.566
rfemur -7.62817 11.815 16.2105
rtibia 25.5677
rfoot -30.964 -23.9619
rtoes -9.12549
lfemur -50.0798 15.1264 -3.51123
ltibia 48.33
lfoot -4.16084 16.2729
ltoes 10.3203
1033
root -0.948103 14.8378 -1.76673 20.256 -36.2308 -6.37746
lowerback -3.67436 1.42961 4.30767
upperback -8.0768 1.7625 -1.43361
thorax -6.19015 0.526257 -3.93457
lowerneck -4.6452 13.3513 19.4763
upperneck 21.8727 21.3407 -20.9913
head 12.603 9.68266 -7.97081
rclavicle -7.90666e-014 -7.15625e-015
rhumerus 8.58648 31.5651 -74.9195
rradius 128.311
rwrist -5.34697
rhand -31.8399 6.46051
rfingers 7.12502
rthumb -5.09413 -23.4583
lclavicle -7.90666e-014 -7.15625e-015
lhumerus -3.63834 1.95652 56.1733
lradius 145.377
lwrist 2.85665
lhand -25.7095 12.4356
lfingers 7.12502
lthumb 0.8263 42.4137
rfemur -7.90873 11.807 16.4129
rtibia 25.6111
rfoot -31.1169 -23.9323
rtoes -8.56611
lfemur -50.1054 15.1446 -3.13874
ltibia 48.2276
lfoot -3.81582 15.6305
ltoes 9.79455
1034
root -0.967845 14.8356 -1.81833 20.3804 -36.261 -6.4228
lowerback -3.80785 1.38995 4.40049
upperback -8.11656 1.70389 -1.39499
thorax -6.16232 0.491879 -3.94261
lowerneck -4.66534 13.3953 19.4709
upperneck 22.0919 21.4573 -21.0267
head 12.7321 9.72307 -7.97098
rclavicle -3.66758e-014 -1.35174e-014
rhumerus 8.57859 31.7704 -74.9654
rradius 128.592
rwrist -5.2104
rhand -32.1303 6.5566
rfingers 7.12502
rthumb -5.37454 -23.3552
lclavicle -3.66758e-014 -1.35174e-014
lhumerus -3.75404 2.06326 56.2435
lradius 145.482
lwrist 2.61375
lhand -25.996 12.3173
lfingers 7.12502
lthumb 0.549591 42.2963
rfemur -8.17824 11.8046 16.5968
rtibia 25.6601
rfoot -31.2194 -23.9714
rtoes -8.15426
lfemur -50.1086 15.1813 -2.84985
ltibia 48.148
lfoot -3.67276 15.167
ltoes 9.17689
